<svg xmlns="http://www.w3.org/2000/svg" fill="white" width="128" height="128"><path fill="white" d="M114 15.25H14A9.761 9.761 0 0 0 4.25 25v77A10.762 10.762 0 0 0 15 112.75h98A10.762 10.762 0 0 0 123.75 102V25a9.761 9.761 0 0 0-9.75-9.75zm6.25 9.75v11.683H52.888L61.37 18.75H114a6.257 6.257 0 0 1 6.25 6.25zM14 18.75h43.5l-8.484 17.933H7.75V25A6.257 6.257 0 0 1 14 18.75zm99 90.5H15A7.258 7.258 0 0 1 7.75 102V40.183h112.5V102a7.258 7.258 0 0 1-7.25 7.25z"/><path d="M21.57 33.466a5.75 5.75 0 1 0-5.75-5.75 5.756 5.756 0 0 0 5.75 5.75zm0-8a2.25 2.25 0 1 1-2.25 2.25 2.253 2.253 0 0 1 2.25-2.25zM37.626 33.466a5.75 5.75 0 1 0-5.75-5.75 5.756 5.756 0 0 0 5.75 5.75zm0-8a2.25 2.25 0 1 1-2.25 2.25 2.253 2.253 0 0 1 2.25-2.25zM67.522 29.466h44.745a1.75 1.75 0 0 0 0-3.5H67.522a1.75 1.75 0 0 0 0 3.5zM90.639 62.264a1.745 1.745 0 0 0-1.955 1.517c-.042.328-1.039 7.471-8.151 8.495v-9.762a1.75 1.75 0 0 0-1.75-1.75h-3.455a13.338 13.338 0 0 0-1.818-5.272c3.6-2.019 4.7-6.183 4.74-8.444a1.75 1.75 0 0 0-3.5-.065c0 .192-.16 4.385-3.538 5.737a10.606 10.606 0 0 0-14.438.012c-3.36-1.37-3.5-5.548-3.5-5.754a1.77 1.77 0 0 0-1.774-1.725 1.751 1.751 0 0 0-1.732 1.768c.025 2.266 1.105 6.447 4.711 8.483a13.348 13.348 0 0 0-1.811 5.26h-3.451a1.75 1.75 0 0 0-1.75 1.75v9.76c-7.051-1.031-8.106-8.162-8.152-8.5a1.75 1.75 0 0 0-3.471.444C36.32 68 39.372 74.932 47.467 75.813V81.3h-9.443a1.75 1.75 0 0 0 0 3.5H47.5a16.429 16.429 0 0 0 .984 4.986c-6.165 1.9-8.231 8.058-8.431 11.376a1.749 1.749 0 0 0 1.636 1.849h.113a1.755 1.755 0 0 0 1.745-1.636c.02-.3.55-6.98 6.51-8.4a16.49 16.49 0 0 0 27.884 0c5.953 1.421 6.489 8.085 6.51 8.4a1.75 1.75 0 0 0 1.745 1.64h.107a1.751 1.751 0 0 0 1.642-1.853c-.2-3.318-2.266-9.478-8.431-11.376A16.429 16.429 0 0 0 80.5 84.8h9.477a1.75 1.75 0 0 0 0-3.5h-9.444v-5.487C88.628 74.932 91.68 68 92.156 64.219a1.749 1.749 0 0 0-1.517-1.955zM64 53.39c3.863 0 7.088 3.178 7.8 7.374H56.2c.712-4.196 3.937-7.374 7.8-7.374zm0 43.766a13.047 13.047 0 0 1-13.033-13.033V64.264H62.25v18.781a1.75 1.75 0 1 0 3.5 0V64.264h11.283v19.859A13.047 13.047 0 0 1 64 97.156z"/></svg>
