<svg xmlns="http://www.w3.org/2000/svg" viewBox="0 0 48 48"><defs><style>.cls-1{fill:#201602}</style></defs><g id="Layer_2" data-name="Layer 2"><g id="layer_1-2" data-name="layer 1"><path class="cls-1" d="M17 38c-2.76 0-5-2.69-5-6a4.68 4.68 0 0 1 5-5 4.68 4.68 0 0 1 5 5c0 3.31-2.24 6-5 6zm0-9a2.72 2.72 0 0 0-3 3c0 2.21 1.35 4 3 4s3-1.79 3-4a2.72 2.72 0 0 0-3-3z"/><path class="cls-1" d="M9 48H7v-6.42a5 5 0 0 1 4.45-5l5.44-.6.22 2-5.44.61a3 3 0 0 0-2.67 3z"/><path class="cls-1" d="M11 42h2v6h-2zM27 48h-2v-6.42a3 3 0 0 0-2.67-3L16.89 38l.22-2 5.44.6a5 5 0 0 1 4.45 5z"/><path class="cls-1" d="M21 42h2v6h-2zM31 40c-2.76 0-5-2.69-5-6a4.68 4.68 0 0 1 5-5 4.68 4.68 0 0 1 5 5c0 3.31-2.24 6-5 6zm0-9a2.72 2.72 0 0 0-3 3c0 2.21 1.35 4 3 4s3-1.79 3-4a2.72 2.72 0 0 0-3-3zM25 42h2v6h-2z"/><path class="cls-1" d="M41 48h-2v-4.42a3 3 0 0 0-2.67-3L30.89 40l.22-2 5.44.6a5 5 0 0 1 4.45 5z"/><path class="cls-1" d="M35 44h2v4h-2zM1 28a1 1 0 0 1-.41-.09A1 1 0 0 1 0 27V1a1 1 0 0 1 1-1h32a1 1 0 0 1 1 1v4h-2V2H2v22.8l6.34-5.55A1 1 0 0 1 9 19h4v2H9.38l-7.72 6.75A1 1 0 0 1 1 28z"/><path class="cls-1" d="M47 32a1 1 0 0 1-.66-.25L38.62 25H15a1 1 0 0 1-1-1V7a1 1 0 0 1 1-1h32a1 1 0 0 1 1 1v24a1 1 0 0 1-.59.91A1 1 0 0 1 47 32zm-31-9h23a1 1 0 0 1 .66.25L46 28.8V8H16z"/><path class="cls-1" d="M34 12h9v2h-9zM19 12h13v2H19zM29 17h9v2h-9zM19 17h8v2h-8z"/></g></g></svg>
