<svg xmlns="http://www.w3.org/2000/svg" fill="white" width="128" height="128" xml:space="preserve"><path fill="white" d="M55.926 128h-4v-13.238H35.618c-7.476 0-13.558-6.032-13.558-13.447V86.561H10.618l15.32-26.271a39.201 39.201 0 0 1-.029-1.416c0-24.504 20.129-44.44 44.873-44.44v4c-22.538 0-40.873 18.141-40.873 40.44 0 .613.022 1.223.049 1.832l.026.586-12.402 21.269h8.478v18.754c0 5.209 4.288 9.447 9.558 9.447h20.308V128zM103.125 128h-4V88.019l.592-.587c7.695-7.637 11.934-17.778 11.934-28.558 0-5.459-1.08-10.752-3.209-15.73l3.678-1.573a43.74 43.74 0 0 1 3.531 17.304c0 11.574-4.441 22.479-12.525 30.8V128z"/><path fill="#282D33" d="m75.715 93.339-12.933-.001-.744-8.827a27.021 27.021 0 0 1-6.2-2.706l-6.582 5.51-9.159-9.07 5.784-6.765a26.473 26.473 0 0 1-2.436-6.228l-8.597-.71V51.694l8.922-.736a26.554 26.554 0 0 1 2.718-6.112l-5.575-6.518 9.162-9.07 6.826 5.718a27.093 27.093 0 0 1 6.32-2.427l.715-8.506h12.935l.742 8.829a27.085 27.085 0 0 1 6.201 2.706l6.576-5.51 9.164 9.07-5.781 6.764a26.614 26.614 0 0 1 2.436 6.229l8.596.709v12.849l-8.922.734a26.517 26.517 0 0 1-2.719 6.113l5.572 6.519-9.166 9.068-6.822-5.719a27.05 27.05 0 0 1-6.318 2.428l-.715 8.507zm-9.256-4.001 5.578.001.66-7.828 1.494-.282a23.099 23.099 0 0 0 7.736-2.959l1.227-.744 6.195 5.192 3.932-3.891-5.121-5.991.871-1.266a22.63 22.63 0 0 0 3.35-7.496l.34-1.403 8.086-.667v-5.481l-7.907-.652-.287-1.492a22.606 22.606 0 0 0-2.98-7.648l-.768-1.241 5.234-6.125-3.932-3.892-6.053 5.072-1.246-.837a23.22 23.22 0 0 0-7.592-3.321l-1.408-.335-.674-8.009h-5.58l-.658 7.83-1.495.282a23.155 23.155 0 0 0-7.74 2.958l-1.224.743-6.197-5.191-3.93 3.89 5.125 5.991-.871 1.266a22.64 22.64 0 0 0-3.35 7.497l-.341 1.402-8.086.667v5.48l7.906.653.287 1.49a22.548 22.548 0 0 0 2.982 7.646l.771 1.242-5.24 6.128 3.929 3.891 6.062-5.073 1.248.84a23.008 23.008 0 0 0 7.582 3.318l1.409.334.676 8.011z"/><g><path fill="#282D33" d="M69.826 70.855c-6.763 0-12.266-5.457-12.266-12.166 0-6.708 5.502-12.165 12.266-12.165s12.266 5.457 12.266 12.165c0 6.709-5.502 12.166-12.266 12.166zm0-20.33c-4.558 0-8.266 3.663-8.266 8.165s3.708 8.166 8.266 8.166c4.559 0 8.266-3.663 8.266-8.166s-3.707-8.165-8.266-8.165z"/></g><g><path fill="#282D33" d="M102.021 26.025c-5.336 0-9.678-4.308-9.678-9.602s4.342-9.602 9.678-9.602 9.678 4.308 9.678 9.602-4.342 9.602-9.678 9.602zm0-15.204c-3.131 0-5.678 2.513-5.678 5.602s2.547 5.602 5.678 5.602 5.678-2.513 5.678-5.602-2.547-5.602-5.678-5.602z"/><path fill="#282D33" d="M100.021 0h4v7.186h-4zM100.021 25.664h4v7.185h-4zM88.646 6.474l6.286 3.595-1.986 3.473-6.286-3.595zM111.089 19.305l6.287 3.594-1.985 3.472-6.287-3.594z"/><g><path fill="#282D33" d="m92.945 19.303 1.987 3.473-6.286 3.596-1.987-3.473zM115.396 6.47l1.987 3.473-6.286 3.596-1.987-3.473z"/></g></g></svg>
