<svg data-name="Layer 1" xmlns="http://www.w3.org/2000/svg" viewBox="0 0 128 128"><path d="M24.192 71.75a7.75 7.75 0 1 0-7.75-7.75 7.759 7.759 0 0 0 7.75 7.75zm0-12a4.25 4.25 0 1 1-4.25 4.25 4.255 4.255 0 0 1 4.25-4.25z"/><path d="M121.5 42.346H6.5A1.75 1.75 0 0 0 4.75 44.1v39.8a1.75 1.75 0 0 0 1.75 1.75h115a1.75 1.75 0 0 0 1.75-1.75V44.1a1.75 1.75 0 0 0-1.75-1.754zm-1.75 39.808H8.25V45.846h111.5z"/><path d="M58.131 70.203H46.836V51.869h-3.968v21.982h15.263v-3.648zM61.428 51.869h3.968v21.982h-3.968zM82.002 73.851l9.184-21.982h-4.448L79.763 68.54l-6.976-16.671h-4.416l9.184 21.982h4.447zM110.642 70.203H98.099v-5.727h11.359v-3.648H98.099v-5.311h12.543v-3.648H94.099v21.982h16.543v-3.648z"/></svg>
